<?xml version="1.0" encoding="UTF-8" standalone="no"?>
<svg
   viewBox="0 0 164 506.98508"
   version="1.1"
   id="svg54"
   sodipodi:docname="female-back (1).svg"
   width="164"
   height="506.98508"
   inkscape:version="1.4.4 (dcaf3e7d, 2026-05-05)"
   xmlns:inkscape="http://www.inkscape.org/namespaces/inkscape"
   xmlns:sodipodi="http://sodipodi.sourceforge.net/DTD/sodipodi-0.dtd"
   xmlns="http://www.w3.org/2000/svg"
   xmlns:svg="http://www.w3.org/2000/svg">
  <defs
     id="defs54" />
  <sodipodi:namedview
     id="namedview54"
     pagecolor="#ffffff"
     bordercolor="#000000"
     borderopacity="0.25"
     inkscape:showpageshadow="2"
     inkscape:pageopacity="0.0"
     inkscape:pagecheckerboard="0"
     inkscape:deskcolor="#d1d1d1"
     inkscape:zoom="0.41967069"
     inkscape:cx="108.41834"
     inkscape:cy="256.15322"
     inkscape:window-width="964"
     inkscape:window-height="430"
     inkscape:window-x="0"
     inkscape:window-y="25"
     inkscape:window-maximized="0"
     inkscape:current-layer="svg54" />
  <g
     fill="none"
     stroke="#111111"
     stroke-width="1"
     id="g54"
     transform="translate(-24.5,-4.5149287)">
    <path
       d="m 127,427 2,2 v 1 l 3,3 2,1 6,1 v 2 l -1,5 -4,17 -1,6 -1,7 -1,8 v 14 l 2,4 2,2 h 1 l 3,3 -1,3 -2,1 h -4 l -7,3 h -8 l -3,-3 1,-12 -1,-7 v -4 l 3,-7 v -9 l -1,-1 -1,-11 -1,-13 v -6 l 2,-2 4,-1 4,-5"
       id="path1" />
    <path
       d="m 86,427 2,2 4,5 2,1 4,1 v 7 l -1,11 -1,12 -1,1 v 10 l 1,4 2,3 v 4 l -1,8 1,11 -3,3 h -8 l -7,-3 h -4 l -2,-1 -1,-3 2,-2 h 1 l 3,-3 1,-2 1,-2 v -14 l -1,-7 -1,-7 -3,-18 -3,-10 1,-4 h 5 l 2,-1 3,-3 v -1"
       id="path2" />
    <path
       d="m 122,367 2,2 1,4 1,7 v 46 l -1,2 -1,2 -4,4 -2,1 -3,-1 -1,-3 -1,-19 v -4 l 1,-12 1,-8 2,-3 3,-10 v -4"
       id="path3" />
    <path
       d="m 91,367 1,4 1,4 2,7 3,6 1,8 1,16 -1,16 -2,7 h -2 l -2,-1 -5,-5 -1,-3 v -48 l 1,-5 1,-4"
       id="path4" />
    <path
       d="m 133,361 2,3 2,5 4,5 1,2 1,6 1,6 1,8 v 4 l -1,16 -1,7 -1,5 -1,4 -2,2 h -4 l -2,-1 -4,-4 -2,-3 -1,-27 v -5 l 1,-8 -1,-14 1,-3 1,-2 2,-3"
       id="path5" />
    <path
       d="m 80,361 3,3 4,8 v 13 l -1,41 -2,3 -4,4 -3,1 h -3 l -2,-2 -1,-4 -1,-5 -1,-7 -1,-12 v -8 l 1,-9 1,-6 1,-6 2,-3 3,-3"
       id="path6" />
    <path
       d="m 85,353 1,2 4,8 v 3 l -4,3 -3,-5 -3,-4 2,-4"
       id="path7" />
    <path
       d="m 129,351 2,2 v 3 l 2,4 -5,6 -4,4 -1,-3 v -4 l 4,-8"
       id="path8" />
    <path
       d="m 119,297 1,6 -1,38 -1,17 -2,8 -1,8 -1,-2 -1,-1 -1,-6 v -56 l 5,-10"
       id="path9" />
    <path
       d="m 94,297 2,2 4,8 1,9 v 49 l -1,6 -2,4 -2,-9 -1,-8 -1,-14 -1,-35 1,-6"
       id="path10" />
    <path
       d="m 125,272 5,1 1,2 1,2 1,3 1,5 v 13 l -1,11 -2,9 -1,10 v 21 l -7,12 -2,5 -1,3 -1,8 -3,7 -1,-6 1,-1 v -7 l 2,-8 1,-12 1,-26 v -33 l 3,-8 1,-5"
       id="path11" />
    <path
       d="m 83,273 h 6 v 6 l 1,4 3,8 v 37 l 1,24 1,10 2,8 1,10 -1,4 -3,-7 -1,-8 -1,-3 -3,-6 -6,-12 v -19 l -1,-10 -3,-19 v -15 l 1,-5 1,-3 1,-2"
       id="path12" />
    <path
       d="m 137,271 2,1 4,4 1,3 1,45 v 11 l -3,13 -1,9 -1,15 -3,-4 -4,-8 -1,-3 -1,-3 -1,-5 v -16 l 1,-10 3,-19 v -22 l -1,-4 -3,-5"
       id="path13" />
    <path
       d="m 75,271 h 3 l 1,1 4,1 -1,2 -2,3 -1,4 v 23 l 1,9 2,9 1,12 v 14 l -1,5 -1,3 -1,3 -4,8 -3,4 -1,-16 -1,-7 -1,-7 -2,-6 v -12 l 1,-45 1,-3 1,-2 1,-1 h 1"
       id="path14" />
    <path
       d="m 101,266 2,4 v 4 l -1,9 -1,10 -2,11 -2,-3 -3,-6 -1,-3 -1,-3 -1,-4 -1,-4 -1,-6 1,-3 2,-1 h 2 l 2,-1 3,-2"
       id="path15" />
    <path
       d="m 111,265 3,3 3,2 2,1 h 2 l 2,1 1,3 -1,6 -1,4 -2,7 -2,5 -4,7 -1,-10 -2,-10 v -9 l -1,-1"
       id="path16" />
    <path
       d="m 156,256 1,13 -1,6 -1,6 -6,27 -1,11 -2,6 -2,-12 v -21 l 2,-10 1,-5 3,-9 2,-5"
       id="path17" />
    <path
       d="m 57,256 2,4 2,3 2,5 1,3 1,3 1,4 1,4 1,5 1,5 v 21 l -2,12 -2,-6 -2,-16 -4,-16 -2,-11 -1,-7"
       id="path18" />
    <path
       d="m 151,222 2,6 v 5 l 3,11 v 10 l -5,10 -2,5 -1,3 -2,8 -1,4 -1,-7 -1,-2 -4,-4 3,-2 h 1 l 2,-1 1,-1 1,-2 1,-5 1,-10 1,-9"
       id="path19" />
    <path
       d="m 62,222 1,19 1,11 1,8 1,5 1,2 3,2 4,2 -3,2 -2,3 -1,8 -1,-4 -1,-4 -1,-4 -3,-8 -6,-12 1,-8 3,-11 v -5"
       id="path20" />
    <path
       d="m 130,213 3,1 h 3 l 2,1 6,6 2,3 2,3 1,2 v 17 l -1,10 -1,7 -1,2 -4,4 -2,1 -3,1 -6,1 h -7 l -4,-1 -2,-1 -3,-2 -4,-4 -1,-2 v -2 l -4,-4 v -2 l 1,-7 -1,-13 2,-4 h 2 l 2,-1 3,-5 8,-7 2,-3"
       id="path21" />
    <path
       d="m 83,213 2,-1 8,7 2,2 1,1 1,1 4,6 3,1 2,2 v 25 l -3,3 -2,5 -3,3 -3,2 -2,1 -4,1 h -8 l -5,-1 -3,-1 -4,-2 -2,-2 -1,-3 -1,-7 -1,-10 v -17 l 1,-2 3,-5 7,-7 2,-1 h 3"
       id="path22" />
    <path
       d="m 144,204 2,1 2,2 1,2 -1,17 -2,-2 -1,-3 -6,-6 -2,-1 h -3 l -3,-4 2,-1 8,-4"
       id="path23" />
    <path
       d="m 69,204 3,1 8,4 1,4 -3,1 h -3 l -3,2 -4,5 -3,5 -1,-17 1,-2 2,-2"
       id="path24" />
    <path
       d="m 133,196 h 2 l 3,2 h 3 l 3,1 2,2 v 4 l -4,-1 -3,1 -2,1 -2,2 -4,-1"
       id="path25" />
    <path
       d="m 79,196 2,2 -1,11 -2,-1 -7,-4 -4,1 -1,-2 1,-2 2,-2 3,-1 h 3"
       id="path26" />
    <path
       d="m 151,176 2,1 6,6 2,3 1,2 1,2 1,4 1,7 2,6 3,9 2,5 4,8 4,5 1,6 3,5 4,12 v 2 l -1,3 -4,8 -4,6 -6,2 1,-2 3,-4 2,-5 v -5 l -3,-4 -1,-1 h -1 l -4,-1 -1,2 -2,9 -2,-2 v -5 l -1,-7 v -2 l 4,-7 v -6 l -1,-3 -2,-5 -5,-10 -3,-8 -2,-7 -1,-4 -1,-4 -1,-5 -1,-5 v -5 l -1,-1"
       id="path27" />
    <path
       d="m 62,176 1,4 -1,7 -1,5 -2,9 -1,4 -4,12 -8,18 -1,3 v 6 l 4,7 v 2 l 1,2 -2,5 v 5 l -4,1 -1,-4 1,-1 -3,-6 -2,1 -3,3 -2,3 -1,2 1,3 1,3 4,7 -1,3 -4,-4 -2,-3 -2,-3 -4,-8 -1,-3 v -3 l 2,-6 4,-8 2,-5 v -3 l 4,-5 3,-6 2,-5 2,-5 3,-9 3,-14 1,-2 1,-2 2,-3 6,-6"
       id="path28" />
    <path
       d="m 75,175 2,4 1,4 1,4 1,5 v 2 l -2,2 -2,1 -3,1 -4,-2 1,-2 2,-3 1,-3 1,-4"
       id="path29" />
    <path
       d="m 138,174 1,11 1,3 1,3 2,7 h -3 l -3,-1 -2,-1 -2,-2 v -3 l 1,-4 3,-9"
       id="path30" />
    <path
       d="m 170,166 1,4 2,7 1,5 1,7 2,17 v 9 l 2,10 -1,5 -2,-2 -3,-6 -2,-5 -3,-8 -3,-10 -1,-4 -1,-4 -1,-5 -1,-7 1,-6 1,-2 1,-2"
       id="path31" />
    <path
       d="m 45,165 4,4 1,2 1,3 1,6 -1,6 -2,9 -2,7 -2,6 -3,9 -2,5 -3,6 -2,2 -1,-6 1,-9 1,-1 1,-17 1,-9 1,-6 1,-5 1,-4 2,-4"
       id="path32" />
    <path
       d="m 111,156 1,2 1,2 v 2 l 4,7 3,7 2,5 2,5 2,8 5,9 v 4 l -17,18 -7,4 -1,-16 1,-54"
       id="path33" />
    <path
       d="m 103,155 2,2 1,2 -3,70 h -1 l -1,-1 -4,-6 -1,-1 -11,-10 -3,-4 v -5 l 3,-4 1,-2 2,-5 3,-10 2,-5 6,-14"
       id="path34" />
    <path
       d="m 154,133 1,2 1,3 2,3 2,3 3,3 h 1 l 2,2 1,2 1,5 1,7 -5,5 -1,2 -1,2 -1,3 -1,9 -6,-7 -3,-2 h -1 l -1,-4 -1,-1 v -2 l 2,-3 v -12 l -2,-7 -1,-5 1,-3 h 2 l 1,-2"
       id="path35" />
    <path
       d="m 60,132 2,2 v 2 l 1,1 3,2 v 2 l -1,5 -2,7 -1,7 v 2 l 3,6 v 2 l -1,1 -1,4 h -1 l -3,2 -6,7 -1,-9 -1,-3 -1,-2 -1,-2 -5,-6 1,-6 1,-5 1,-2 2,-2 h 1 l 3,-3 2,-3 2,-3"
       id="path36" />
    <path
       d="m 142,124 2,6 2,4 1,5 2,11 1,6 v 8 l -2,2 -2,-5 v -4 l -1,-4 -3,-8 -1,-5"
       id="path37" />
    <path
       d="m 71,124 1,15 -1,6 -3,7 -1,4 v 4 l -2,6 -2,-2 v -8 l 1,-7 2,-10 1,-5 2,-7 1,-1"
       id="path38" />
    <path
       d="m 73,122 h 3 9 l 3,1 1,2 1,2 v 2 l 3,6 5,6 2,3 3,6 v 4 l -2,4 -4,7 -8,19 -3,11 -2,4 -2,2 -2,-7 v -5 l -3,-12 -4,-11 -1,-7 -1,-11 v -4 l 2,-10 -1,-7"
       id="path39" />
    <path
       d="m 140,121 1,6 -1,9 2,7 v 5 l -1,10 -1,8 -4,11 -3,12 -1,5 -3,5 -1,-2 -1,-2 -4,-13 -2,-5 -3,-7 -3,-7 -5,-9 v -4 l 3,-6 8,-11 1,-2 1,-2 v -2 l 1,-2 1,-2 2,-1 8,1"
       id="path40" />
    <path
       d="m 154,117 3,5 3,3 3,4 v 6 l 2,6 1,5 -2,1 -4,-4 -2,-3 -2,-3 -4,-8 v -7"
       id="path41" />
    <path
       d="m 59,117 2,6 v 6 l -4,8 -4,6 -6,3 1,-6 1,-5 1,-6 3,-4 3,-3"
       id="path42" />
    <path
       d="m 141,115 1,3 -1,3 -3,1 -10,-1 3,-2 3,-1"
       id="path43" />
    <path
       d="m 74,114 5,4 6,3 -10,1 -4,-2 v -2"
       id="path44" />
    <path
       d="m 149,101 2,2 1,5 v 21 l -1,6 -1,1 -1,2 -2,-2 -1,-2 -1,-2 -1,-4 -2,-8 -1,-5 v -2 l 5,-5 1,-2"
       id="path45" />
    <path
       d="m 64,101 2,4 2,5 4,4 -1,6 -1,4 -1,4 -1,3 -1,3 -1,2 -2,2 -1,-2 -1,-1 -1,-6 v -21 l 1,-5"
       id="path46" />
    <path
       d="m 135,92 5,-1 2,1 3,2 3,6 -1,5 -1,2 -6,6 -4,3 -5,3 -4,2 v -3 -3 l 2,-6 5,-15"
       id="path47" />
    <path
       d="m 73,91 5,1 1,2 1,5 4,10 v 3 l 2,6 v 3 l -2,-1 -4,-2 -3,-2 -3,-2 -7,-7 -1,-2 -1,-5 -1,-2 5,-5 2,-1"
       id="path48" />
    <path
       d="m 132,76 h 5 l 7,2 3,1 3,1 2,1 2,1 4,4 1,2 1,2 1,4 1,9 -1,23 -4,-5 -2,-3 -1,-2 -1,-2 -1,-4 v -5 l -1,-4 -1,-3 -4,-4 -3,-2 -2,-1 -2,-1 -4,1 -1,2 -1,2 -4,12 v 3 l -2,6 -3,4 -3,-3 -3,-6 -1,-3 -1,-3 -1,-5 v -7 l -2,-3 -1,-3 v -3 l 3,-3 2,-1 2,-1 3,-1 5,-1"
       id="path49" />
    <path
       d="m 76,76 h 5 l 6,1 4,1 3,1 2,1 2,1 3,3 v 3 l -1,3 -2,3 v 7 l -1,4 -1,4 -1,3 -3,6 -5,2 -1,-3 -2,-6 v -3 L 80,95 78,91 76,90 h -2 l -6,3 -5,5 -1,3 -1,4 v 4 l -1,5 -1,2 -1,2 -2,3 -4,4 -1,-22 1,-9 1,-5 1,-2 5,-5 6,-3"
       id="path50" />
    <path
       d="m 107,53 h 3 l 2,1 4,3 3,4 -1,4 1,2 4,4 5,2 4,2 -4,2 h -4 l -4,1 -6,3 -2,2 v 6 l 2,3 1,5 v 5 l 1,5 1,3 4,8 3,3 v 4 l -2,5 -1,2 -8,11 -3,7 -2,4 -2,-81 V 58"
       id="path51" />
    <path
       d="m 103,53 3,1 -1,101 -1,-4 -4,-8 -8,-11 -1,-2 -1,-2 -2,-6 4,-4 3,-6 1,-3 1,-3 1,-4 v -5 l 1,-5 2,-3 v -6 l -2,-2 -2,-1 -2,-1 -3,-1 -3,-1 h -4 l -4,-2 4,-2 5,-2 3,-2 2,-4 v -2 l -2,-2 5,-5 3,-2"
       id="path52" />
    <path
       d="m 101,6 h 10 l 3,1 2,1 6,6 1,2 1,2 1,4 1,10 v 18 l -1,3 -1,2 -1,2 -3,3 -3,-3 -4,-3 -2,-1 -3,-1 h -4 l -3,1 -3,2 -6,5 -4,-4 -1,-2 -1,-2 V 27 l 1,-6 1,-4 1,-2 2,-3 3,-3 2,-1 2,-1"
       id="path53" />
    <path
       d="m 103,5 -4,1 -3,1 -3,2 -3,3 -3,6 -1,5 -1,11 v 15 l 1,4 1,2 1,2 2,3 4,3 v 3 l -5,5 -2,1 -2,1 -6,2 -3,1 -9,2 -3,1 -6,3 -4,4 -1,2 -1,3 -1,6 -1,15 v 19 l -1,6 -4,21 -2,9 -3,8 -1,4 -1,5 -1,8 -1,18 -2,9 v 9 l -1,7 -1,3 -4,8 -3,9 v 6 l 1,3 1,2 6,10 4,4 h 3 v -3 l -2,-4 -4,-7 v -3 l 2,-3 3,-3 h 4 v 9 l 3,2 2,-1 v -2 l 1,-1 v -6 l 1,-1 v -5 l -1,-3 -3,-4 -1,-2 v -4 l 2,-5 8,-18 3,-9 1,-4 1,-4 3,-15 1,-11 1,-5 4,-14 1,-5 1,7 2,6 1,14 v 5 l -1,5 -1,3 -2,5 -4,7 -1,3 -1,3 -1,4 -3,14 -3,16 -1,7 -1,12 v 5 l 1,8 2,11 6,27 5,28 2,13 v 9 l 1,1 v 8 l -1,8 -2,6 -1,6 v 22 l 1,8 1,6 6,25 3,18 2,16 v 7 l -1,3 -1,2 -3,3 h -1 l -3,3 1,3 2,1 13,4 h 6 l 2,-1 2,-2 v -3 l 1,-1 v -2 l -2,-11 2,-5 -3,-7 v -18 l 2,-12 1,-13 1,-15 v -18 l -2,-19 v -4 l 1,-1 v -5 l 2,-6 1,-6 v -25 l -1,-48 2,-10 v -18 l 4,-3 3,3 v 19 l 2,9 -1,49 v 23 l 1,8 2,6 1,6 v 2 l -2,19 v 21 l 1,15 2,12 1,13 v 16 l -3,6 v 2 15 2 l 2,6 3,1 h 5 l 4,-1 7,-2 3,-1 2,-1 1,-3 -3,-3 h -1 l -3,-3 -1,-2 -1,-3 v -7 l 1,-1 v -8 l 1,-7 2,-13 2,-10 5,-20 1,-7 1,-9 v -19 l -1,-7 -2,-6 -1,-7 v -9 l 1,-10 1,-7 1,-6 3,-17 3,-11 1,-11 3,-11 2,-11 1,-6 v -24 l -1,-6 -1,-6 -3,-16 -2,-9 -1,-4 -1,-3 -2,-5 -4,-7 -1,-3 -1,-3 -1,-5 v -5 l 1,-13 1,-7 2,-6 1,4 2,5 4,20 1,11 1,5 3,12 3,9 3,8 6,13 1,3 v 2 l -1,3 -1,2 -2,2 -1,3 v 5 l 1,1 v 6 l 2,4 h 2 l 2,-2 3,-9 h 1 l 1,1 4,5 v 3 l -2,4 -4,7 v 3 h 3 l 4,-4 3,-5 2,-4 3,-6 v -6 l -1,-3 -1,-3 -4,-8 -1,-3 -1,-3 -1,-7 -1,-8 -1,-18 -1,-9 -1,-8 -1,-5 -1,-5 -3,-8 -1,-4 -1,-5 -1,-5 -3,-16 -1,-6 -1,-7 v -2 l 1,-10 -1,-14 -1,-7 -1,-3 -1,-2 -4,-4 -3,-2 -3,-1 -3,-1 -9,-2 -9,-3 -2,-1 -2,-1 -5,-5 v -4 l 5,-5 1,-2 1,-2 1,-11 -1,-16 -1,-6 -1,-3 -1,-2 -1,-2 -5,-5 -2,-1 -2,-1 -4,-1"
       id="path54" />
  </g>
</svg>
