<?xml version="1.0" encoding="UTF-8" standalone="no"?>
<svg
   viewBox="0 0 166 501"
   version="1.1"
   id="svg82"
   sodipodi:docname="female-front (1).svg"
   width="166"
   height="501"
   inkscape:version="1.4.4 (dcaf3e7d, 2026-05-05)"
   xmlns:inkscape="http://www.inkscape.org/namespaces/inkscape"
   xmlns:sodipodi="http://sodipodi.sourceforge.net/DTD/sodipodi-0.dtd"
   xmlns="http://www.w3.org/2000/svg"
   xmlns:svg="http://www.w3.org/2000/svg">
  <defs
     id="defs82" />
  <sodipodi:namedview
     id="namedview82"
     pagecolor="#ffffff"
     bordercolor="#000000"
     borderopacity="0.25"
     inkscape:showpageshadow="2"
     inkscape:pageopacity="0.0"
     inkscape:pagecheckerboard="0"
     inkscape:deskcolor="#d1d1d1"
     inkscape:zoom="0.12666295"
     inkscape:cx="59.212266"
     inkscape:cy="260.53397"
     inkscape:window-width="944"
     inkscape:window-height="245"
     inkscape:window-x="75"
     inkscape:window-y="132"
     inkscape:window-maximized="0"
     inkscape:current-layer="svg82" />
  <g
     fill="none"
     stroke="#111111"
     stroke-width="1"
     id="g82"
     transform="translate(-63.5,-10.5)">
    <path
       d="m 161,428 1,10 -2,29 -1,-2 -1,-1 -1,-11 -1,-12 v -8"
       id="path1" />
    <path
       d="m 132,428 2,3 3,2 v 8 l -2,13 v 11 l -1,1 -1,2 -2,-28"
       id="path2" />
    <path
       d="m 183,389 2,5 v 14 l -1,9 -1,7 -6,25 -1,6 -1,6 -1,7 -3,11 h -2 l -2,-2 v -7 l 1,-6 1,-6 3,-15 1,-4 1,-4 3,-7 1,-4 1,-5 1,-6 1,-6 1,-8"
       id="path3" />
    <path
       d="m 110,388 1,11 1,8 1,7 1,5 1,5 3,7 4,16 1,5 1,5 1,6 1,7 -1,8 -6,1 v -12 l -1,-6 -1,-6 -2,-11 -1,-5 -3,-10 -1,-5 -1,-6 -1,-11 v -14"
       id="path4" />
    <path
       d="m 157,383 2,3 1,2 1,4 1,4 v 29 l -1,2 -4,4 -2,-5 v -28"
       id="path5" />
    <path
       d="m 136,383 2,15 v 30 l -1,1 -1,2 -4,-4 -1,-2 v -29 l 1,-5 1,-3"
       id="path6" />
    <path
       d="m 181,377 1,3 1,1 v 2 l -1,12 -1,8 -1,8 -1,6 -1,5 -1,4 -3,7 -3,12 -3,15 -1,7 -1,9 -2,-18 v -7 l 1,-10 1,-7 4,-24 2,-11 1,-5 1,-5 1,-3 1,-3 2,-3"
       id="path7" />
    <path
       d="m 112,377 3,3 2,3 1,3 1,3 1,5 2,10 2,12 4,24 v 13 l 1,1 v 12 l -2,9 -1,-8 -1,-6 -1,-7 -2,-9 -3,-12 -3,-7 -1,-5 -2,-10 -1,-7 -1,-10 -1,-11 v -2 l 1,-1"
       id="path8" />
    <path
       d="m 162,347 3,2 h 2 l 3,-2 1,12 1,2 1,2 1,1 h 1 l 5,3 2,8 -4,4 -2,3 -1,2 -1,3 -1,5 -2,10 -2,11 -1,6 -1,6 -3,19 1,34 5,1 2,1 2,2 v 5 l -1,1 v 4 l 1,2 1,2 6,8 1,2 -1,3 -3,1 -18,-1 v -1 l -2,-2 -1,-2 -1,-18 v -4 l 1,-2 3,-3 1,-4 1,-21 v -59 l -1,-3 -1,-3 -2,-5 -2,-2 -1,-4 v -4 l -1,-1 1,-4 h 2 1 l 1,-1 1,-2 1,-7"
       id="path9" />
    <path
       d="m 123,347 3,2 h 2 l 3,-2 1,11 1,5 2,4 h 1 2 l 1,4 -1,1 v 4 l -1,4 -1,2 -2,2 -1,3 -1,3 -1,4 v 60 l 1,20 2,4 h 1 l 2,4 v 3 l -1,19 -2,4 -2,2 h -17 l -4,-2 v -2 l 1,-2 6,-8 1,-2 1,-2 v -4 l -1,-1 v -5 l 2,-2 5,-2 3,-1 v -32 l -1,-7 -1,-7 -4,-24 -2,-11 -1,-5 -1,-4 -1,-3 -1,-2 -2,-3 -4,-4 2,-8 2,-1 h 1 l 2,-1 1,-1 v -1 l 2,-2 1,-3"
       id="path10" />
    <path
       d="m 160,294 1,16 -1,52 -1,3 -2,2 h -2 l -2,-2 v -42 l 1,-8 3,-13 1,-4"
       id="path11" />
    <path
       d="m 133,294 2,4 1,4 3,13 1,10 v 40 l -2,2 h -2 l -2,-2 -1,-4 -1,-52"
       id="path12" />
    <path
       d="m 189,260 2,4 1,9 v 12 l -1,21 -2,11 -3,11 -3,17 -1,7 v 8 l -2,7 -2,-1 -2,-2 h -1 l -1,-1 v -1 l -2,-2 -1,-4 v -10 l 1,-5 3,-13 12,-45 1,-5"
       id="path13" />
    <path
       d="m 104,260 1,17 1,6 2,8 12,45 1,5 1,5 v 11 l -1,3 -1,2 -3,3 -4,2 -2,-6 v -9 l -2,-13 -5,-22 v -6 l -2,-6 -1,-23 v -11 l 1,-7"
       id="path14" />
    <path
       d="m 158,256 1,3 -2,4 -1,7 -2,4 -1,4 -1,-13 4,-5"
       id="path15" />
    <path
       d="m 135,256 2,4 3,3 1,2 -1,13 -1,-4 -2,-4 -1,-7 -2,-4"
       id="path16" />
    <path
       d="m 112,241 v 4 l 1,4 1,4 4,12 3,6 5,7 2,4 3,6 1,12 1,19 v 25 l -4,4 h -4 l -3,-3 -1,-3 -1,-4 -2,-9 -12,-48 -1,-9 v -18 l 3,-6 1,-3"
       id="path17" />
    <path
       d="m 184,240 v 5 l 4,10 v 16 l -1,10 -2,8 -4,16 -8,32 -1,5 -1,3 -3,3 h -4 l -4,-4 v -22 l 1,-21 1,-13 2,-4 3,-6 5,-7 3,-6 2,-5 3,-11 1,-4"
       id="path18" />
    <path
       d="m 177,224 3,1 v 2 l -1,1 v 3 l -2,7 -4,12 -2,5 -12,24 -3,9 v 4 l -1,1 -1,2 -2,-10 1,-5 1,-4 1,-4 6,-21 3,-9 1,-2 8,-12"
       id="path19" />
    <path
       d="m 115,224 2,1 3,3 6,9 2,3 2,5 1,3 1,3 2,7 2,7 3,11 1,7 1,1 v 2 l -2,9 -1,-2 -1,-1 -1,-7 -1,-3 -1,-3 -4,-9 -8,-15 -2,-5 -2,-6 -3,-9 -1,-7 -1,-1"
       id="path20" />
    <path
       d="m 182,222 1,8 -1,7 -1,5 -1,5 -1,4 -2,7 -1,3 -2,5 -1,2 -1,2 -5,7 -6,12 -2,5 -1,3 -1,3 v 4 l -2,5 -1,-10 3,-12 1,-4 2,-5 4,-8 8,-16 3,-8 1,-3 1,-3 2,-7 1,-7"
       id="path21" />
    <path
       d="m 111,222 1,4 2,7 7,21 5,11 7,13 2,5 1,3 1,4 2,9 -1,10 -2,-5 v -5 l -1,-3 -2,-5 -7,-14 -5,-7 -3,-6 -1,-3 -1,-3 -3,-11 -1,-4 -1,-6 -1,-7"
       id="path22" />
    <path
       d="m 187,218 h 3 v 5 l 5,21 1,6 1,9 v 14 l -1,6 -2,6 -1,6 -1,-24 -1,-5 -2,-6 -5,-13 v -21"
       id="path23" />
    <path
       d="m 105,217 4,5 v 21 l -1,4 -1,3 -3,6 -2,6 -1,5 -1,23 -2,-6 -1,-6 -1,-6 v -13 l 1,-9 1,-6 3,-16 1,-5 1,-4"
       id="path24" />
    <path
       d="m 185,206 3,5 v 2 l 1,2 -2,3 -3,3 -6,3 -1,-2 4,-5 1,-2 1,-2 1,-3"
       id="path25" />
    <path
       d="m 108,206 1,4 1,3 1,2 1,2 2,3 2,2 -3,1 -2,-1 -2,-1 -3,-3 -1,-2 v -5"
       id="path26" />
    <path
       d="m 148,199 h 14 l 2,2 1,2 v 6 l -1,1 v 7 l -1,5 -3,10 -5,12 -1,7 -2,6 -2,2 -3,-1 1,-35 -1,-15"
       id="path27" />
    <path
       d="m 131,199 15,1 v 6 l -1,21 v 32 h -2 l -2,-2 -1,-3 -3,-13 -1,-3 -3,-6 -1,-3 -3,-12 -1,-7 v -7 l 1,-2"
       id="path28" />
    <path
       d="m 166,194 1,3 -1,1 -1,3 -2,-2 -2,-1 2,-2 h 1"
       id="path29" />
    <path
       d="m 127,194 2,2 h 1 l 2,2 -2,1 -1,1 -1,2 -2,-6"
       id="path30" />
    <path
       d="m 113,194 2,4 2,3 3,3 3,2 2,1 2,-1 1,8 1,5 1,4 1,4 7,19 1,6 1,4 1,2 3,2 h 6 l 2,-2 1,-2 1,-4 2,-9 7,-19 1,-5 1,-5 1,-8 3,1 4,-3 3,-3 2,-3 2,-4 1,2 1,1 2,5 v 5 l -1,5 -1,2 -3,5 -4,6 -7,9 -3,5 -1,2 -1,4 -4,6 -1,4 -1,2 -2,3 -2,3 -2,2 h -9 l -2,-2 -2,-3 -5,-9 -3,-6 -1,-4 -1,-2 -1,-2 -5,-7 -10,-14 -1,-2 -1,-2 -1,-5 v -5 l 2,-5 1,-1"
       id="path31" />
    <path
       d="m 179,184 1,9 -1,2 -1,2 -2,3 -4,4 -4,2 -2,-2 v -4 l 1,-4 3,-6 2,-2 4,-1"
       id="path32" />
    <path
       d="m 114,184 3,3 4,1 2,2 3,6 1,4 -1,6 h -2 l -4,-3 -3,-3 -2,-3 -1,-2 -1,-2"
       id="path33" />
    <path
       d="m 148,181 h 8 l 5,1 2,1 3,3 v 6 l -1,2 -2,2 -3,1 -13,-1"
       id="path34" />
    <path
       d="m 138,181 8,1 -1,15 h -11 l -4,-1 -2,-2 -1,-2 v -6 l 4,-4"
       id="path35" />
    <path
       d="m 190,179 6,6 2,3 3,6 4,14 2,5 3,7 3,7 5,9 1,3 v 3 l 3,8 4,8 1,3 1,3 v 6 l -2,4 -3,6 -2,3 -2,3 -5,1 1,-2 3,-5 2,-5 v -3 l -2,-3 -4,-4 -2,-1 -2,2 v 9 l -2,2 -2,-2 -1,-2 v -6 l -1,-1 v -5 l 1,-2 3,-4 1,-3 v -4 l -1,-4 -3,-8 -3,-5 -2,-5 -4,-11 -1,-4 -2,-8 -1,-5 -1,-5 v -6 l -2,-6"
       id="path36" />
    <path
       d="m 103,179 1,2 -1,6 -1,1 v 5 l -1,5 -1,5 -3,12 -1,3 -10,23 -1,3 v 4 l -1,1 v 3 l 5,9 v 5 l -1,1 v 6 l -1,2 -2,2 -2,-2 -2,-11 -2,1 -4,4 -2,3 v 3 l 1,3 3,11 -3,-3 -2,-3 -2,-3 -2,-4 -3,-6 v -6 l 1,-3 1,-3 4,-8 3,-12 2,-4 4,-7 4,-9 6,-15 1,-3 v -3 l 1,-3 3,-6 2,-3"
       id="path37" />
    <path
       d="m 145,177 h 3 l 5,2 4,1 h -21 l 5,-1"
       id="path38" />
    <path
       d="m 180,171 1,9 -1,2 -5,5 -3,1 -3,-3 1,-4 1,-3 2,-2 4,-2"
       id="path39" />
    <path
       d="m 113,170 1,2 2,2 3,2 h 1 l 1,1 1,2 1,2 1,4 -2,2 h -4 l -5,-5 -1,-2"
       id="path40" />
    <path
       d="m 201,168 1,9 -2,14 -2,-4 -2,-3 -8,-8 1,-4 3,2 h 5 l 2,-2"
       id="path41" />
    <path
       d="m 92,168 3,4 v 1 l 7,1 2,-2 1,4 -8,8 -2,3 -2,4 -2,-15"
       id="path42" />
    <path
       d="m 167,164 2,1 1,4 -1,7 1,4 -1,3 v 3 l 2,2 -1,2 -2,2 -1,3 -1,-10 -3,-3 -4,-1 6,-2 v -6 l -2,-3 3,-3"
       id="path43" />
    <path
       d="m 126,164 1,4 3,2 -2,3 1,7 5,1 -4,1 -3,3 -1,9 -4,-6 2,-2 v -3 l -1,-3 -1,-2 2,-2 -1,-8 1,-3"
       id="path44" />
    <path
       d="m 148,162 h 2 l 8,5 3,3 h 1 l 2,2 1,3 v 3 l -2,2 h -3 l -6,-1 -4,-1 -2,-1"
       id="path45" />
    <path
       d="m 143,162 3,1 -1,14 -2,1 -5,1 h -4 l -1,1 h -3 l -2,-2 v -3 l 1,-2 1,-2 1,-1 4,-3 3,-2"
       id="path46" />
    <path
       d="m 182,160 1,4 -1,3 -3,4 -3,3 -3,2 -2,1 -1,-3 -1,-2 1,-4 3,-3 7,-4"
       id="path47" />
    <path
       d="m 111,160 2,1 7,4 3,3 v 3 l 1,1 v 2 l -1,1 -1,2 -2,-1 -3,-2 -4,-4 -2,-3 -1,-3"
       id="path48" />
    <path
       d="m 205,157 2,4 1,9 5,17 1,5 1,9 1,17 1,1 1,9 -1,5 -1,-2 -1,-1 -5,-11 -3,-7 -3,-8 -1,-3 -1,-4 -1,-10 v -2 l 1,-12 1,-8"
       id="path49" />
    <path
       d="m 88,157 2,8 1,7 1,15 v 4 l -1,7 -3,9 -5,12 -4,9 -3,5 -1,-5 2,-9 1,-19 1,-8 1,-5 1,-5 3,-8 2,-8 v -5"
       id="path50" />
    <path
       d="m 145,156 h 3 l 2,2 5,5 -2,1 -2,-2 -7,-1 -2,1 -4,1 5,-4"
       id="path51" />
    <path
       d="m 183,154 1,2 -1,2 -3,3 -3,2 -2,1 -2,1 h -4 l -2,-3 1,-2 1,-2 1,-1 2,-1 h 8"
       id="path52" />
    <path
       d="m 110,154 3,2 h 7 l 3,1 2,2 v 2 l 1,2 -2,2 h -4 l -2,-1 -2,-1 -3,-2 -4,-4"
       id="path53" />
    <path
       d="m 165,149 4,3 6,3 -4,1 -2,1 -1,1 -1,2 -1,-7 -2,-2"
       id="path54" />
    <path
       d="m 128,149 1,2 -2,2 -1,7 -1,-2 -1,-1 -5,-2 2,-2"
       id="path55" />
    <path
       d="m 160,142 h 2 l 4,2 6,3 5,1 h 2 l 4,-3 1,6 -1,2 -2,2 h -5 l -8,-4 -3,-2 -3,-2 -3,-3"
       id="path56" />
    <path
       d="m 132,142 2,2 -3,3 -3,2 -5,3 -6,3 h -5 l -2,-2 -1,-2 1,-6 2,2 h 8 l 3,-1 3,-1 3,-2"
       id="path57" />
    <path
       d="m 149,140 h 2 l 3,2 4,3 6,6 1,2 1,4 v 9 l -2,2 h -2 l -5,-5 -7,-5 -2,-2 -1,-3 v -11"
       id="path58" />
    <path
       d="m 142,140 h 2 l 2,2 v 11 l -1,3 -2,2 -7,5 -5,5 h -2 l -2,-2 v -10 l 1,-3 1,-2 6,-6 5,-4"
       id="path59" />
    <path
       d="m 183,136 1,6 -1,2 -3,3 h -6 l -3,-1 -5,-2 -1,-1 -2,-1 6,-2 h 5 l 4,-1 3,-2"
       id="path60" />
    <path
       d="m 110,136 2,1 3,2 3,1 h 5 l 6,2 -4,2 -3,2 -3,1 h -6 l -3,-3 -1,-3"
       id="path61" />
    <path
       d="m 145,136 h 3 l 2,3 -2,1 h -3 l -2,-1"
       id="path62" />
    <path
       d="m 201,127 1,11 2,7 -1,3 -1,-2 -1,-1 -2,-5 v -9"
       id="path63" />
    <path
       d="m 92,126 2,5 v 9 l -1,3 -3,5 -1,-3 1,-1 1,-5"
       id="path64" />
    <path
       d="m 108,124 1,4 -1,1 1,12 -1,9 2,4 -2,2 v 5 l -1,5 -1,3 -4,4 -2,1 -1,-6 1,-14 1,-6 2,-9 1,-4 2,-7"
       id="path65" />
    <path
       d="m 185,123 1,4 2,5 2,7 1,4 1,5 1,7 1,12 -1,7 -2,-1 -4,-4 -1,-3 v -5 l -1,-5 -2,-2 2,-5 v -7 l -1,-14"
       id="path66" />
    <path
       d="m 186,109 1,3 v 3 l 1,3 2,5 9,17 4,9 1,3 v 5 l -1,4 -1,3 -1,3 -1,2 -2,2 v 1 h -4 l -1,-11 v -10 l -1,-5 -1,-5 -1,-4 -1,-4 -2,-7 -3,-7 -2,-7"
       id="path67" />
    <path
       d="m 108,107 2,2 1,3 -3,7 -2,7 -4,15 -1,5 -1,5 -1,10 -2,13 -3,-3 -1,-2 -1,-2 -1,-3 -2,-7 v -5 l 1,-3 4,-9 10,-19 1,-3 1,-3 1,-4"
       id="path68" />
    <path
       d="m 164,96 h 6 l 5,1 2,1 2,1 5,5 v 3 l -2,3 v 10 l 2,6 v 7 l -1,2 -2,2 -2,1 -2,1 -5,1 -9,1 h -4 l -5,-1 -4,-2 -2,-2 -1,-3 v -23 l 2,-5 2,-3 2,-2 3,-2 3,-1"
       id="path69" />
    <path
       d="m 122,96 h 7 l 5,1 3,1 3,2 2,2 2,3 1,3 1,3 v 22 l -1,3 -2,2 -2,1 -2,1 -5,1 h -5 l -8,-1 -4,-1 -3,-1 -2,-1 -2,-2 -1,-2 v -7 l 2,-6 1,-6 -1,-4 -2,-3 v -3 l 5,-5 2,-1 2,-1"
       id="path70" />
    <path
       d="m 189,89 2,1 2,1 6,6 1,3 1,5 1,10 v 6 l -3,8 -1,8 -2,-3 -2,-5 -4,-7 -3,-9 -1,-7 -1,-2 -6,-6 -2,-1 -3,-3 3,-1"
       id="path71" />
    <path
       d="m 105,89 5,2 6,2 3,4 h -2 l -2,1 -2,1 -5,5 -1,3 -1,3 v 3 l -1,3 -1,3 -2,5 -7,13 -1,-8 -3,-8 v -4 l 1,-12 1,-5 1,-3 6,-6 2,-1"
       id="path72" />
    <path
       d="m 138,84 2,3 2,5 2,2 4,1 3,-3 4,-8 7,7 2,1 h 3 l 1,-5 h 14 l 4,2 -5,3 -12,4 h -8 l -4,1 -4,2 -2,2 -2,3 -4,4 -1,-4 -2,-2 v -1 l -1,-1 h -1 l -2,-2 -2,-1 -4,-1 h -8 l -3,-1 -3,-2 -6,-1 -5,-3 4,-2 15,1 v 4 h 3 l 2,-1"
       id="path73" />
    <path
       d="m 163,82 2,-1 2,1 2,1 4,2 -6,1"
       id="path74" />
    <path
       d="m 130,82 -4,4 -6,-1 4,-2 2,-1"
       id="path75" />
    <path
       d="m 142,74 h 2 l 8,1 v 2 l -1,5 -3,7 -3,3 v -3 l -2,-4 -1,-7 -1,-1"
       id="path76" />
    <path
       d="m 158,71 1,4 4,8 4,4 -1,4 h -3 l -8,-8 v -3 l 1,-1 v -4"
       id="path77" />
    <path
       d="m 156,70 v 3 3 l -1,1 -1,7 -1,3 -1,2 -2,2 -1,-4 3,-7 v -4 l 1,-3"
       id="path78" />
    <path
       d="m 137,70 3,3 1,3 2,11 1,1 -1,3 -2,-4 -2,-3 -1,-3 v -4 l -1,-4"
       id="path79" />
    <path
       d="m 135,70 1,4 2,5 v 4 l -8,8 -3,1 -1,-5 4,-4 4,-8"
       id="path80" />
    <path
       d="m 145,11 h 4 l 4,1 3,1 3,2 3,3 3,6 1,4 1,10 v 18 l -1,3 -1,2 -3,4 -1,1 -5,4 -4,3 -2,1 h -7 l -3,-2 -5,-4 -6,-6 -1,-2 -1,-3 V 33 l 1,-7 1,-3 1,-2 1,-2 5,-5 2,-1 2,-1"
       id="path81" />
    <path
       d="m 142,11 -4,1 -3,2 -5,5 -1,2 -1,3 -1,4 -1,10 v 18 l 1,3 1,2 1,2 4,4 v 9 l -5,5 -2,1 -2,1 -6,2 -6,1 -3,2 h -3 l -3,1 -2,1 -2,1 -5,5 -1,2 -1,4 -1,7 v 25 l -1,7 -1,6 -3,16 -1,5 -6,21 -1,7 -1,18 -1,9 -1,8 -1,8 -1,4 -5,11 -4,12 v 3 l 2,5 1,2 3,5 2,3 2,3 2,2 2,1 2,-1 v -2 l -1,-2 -3,-4 -2,-5 v -4 l 1,-2 4,-4 2,-1 1,2 1,1 1,9 h 2 l 2,-2 v -6 l 2,-4 v -2 l -1,-3 -4,-7 v -7 l 1,-3 1,-3 2,-5 3,-5 2,-5 4,-12 3,-12 1,-5 1,-5 v -6 l 4,-21 2,-4 2,7 1,6 v 21 l -1,3 -1,3 -6,12 -1,4 -4,20 -2,11 -1,6 v 23 l 2,11 4,16 v 6 l 3,11 1,11 3,11 1,6 1,9 v 19 l -3,14 v 23 l 1,8 2,10 5,21 1,6 1,6 1,7 -1,9 v 5 l 1,8 -1,2 -2,3 -3,3 -1,3 -2,4 2,2 16,1 h 4 l 2,-2 3,-6 -1,-14 2,-5 -3,-7 -1,-6 2,-11 1,-13 1,-12 1,-15 v -15 l -2,-18 v -8 l 3,-10 1,-9 v -11 l -1,-58 2,-10 1,-16 8,1 v 15 l 2,10 1,10 v 4 l -2,48 v 8 l 1,7 3,12 v 9 l -2,15 v 14 l 1,1 v 15 l 1,13 2,12 v 18 l -2,4 1,7 v 3 l -1,12 3,6 2,2 h 5 l 15,-1 2,-3 -2,-3 -1,-3 -5,-6 -1,-2 -1,-3 2,-5 v -6 l -1,-1 v -6 l 1,-1 v -7 l 1,-6 4,-22 3,-10 1,-5 1,-7 v -25 l -2,-6 -1,-6 v -21 l 1,-7 3,-18 6,-33 4,-16 1,-6 v -22 l -1,-7 -1,-6 -2,-10 -3,-15 -1,-4 -2,-5 -4,-7 -1,-3 -1,-3 v -22 l 1,-5 2,-6 1,2 1,1 1,5 1,5 3,22 1,5 3,12 3,9 6,13 3,8 1,3 v 7 l -4,7 -1,3 v 2 l 1,1 1,4 v 5 l 2,2 3,-1 v -9 l 3,-2 5,5 v 1 l 2,2 -1,3 -6,12 4,1 3,-3 2,-3 4,-7 1,-2 2,-6 v -2 l -1,-1 v -3 l -1,-3 -4,-8 -4,-12 -1,-8 -2,-26 -1,-9 -1,-7 -1,-5 -1,-4 -2,-4 -1,-4 -1,-4 v -7 l -3,-9 -1,-5 -1,-6 -1,-6 v -25 l -1,-9 -1,-3 -1,-2 -5,-5 -2,-1 -2,-1 -3,-1 -3,-1 -6,-1 -9,-3 -2,-1 -2,-1 -5,-5 v -8 l 4,-4 3,-6 1,-12 -1,-14 -1,-6 -1,-4 -1,-2 -2,-3 -3,-3 -2,-1 -2,-1 -3,-1"
       id="path82" />
  </g>
</svg>
