<?xml version="1.0" encoding="UTF-8" standalone="no"?>
<svg
   viewBox="0 0 197 496.98508"
   version="1.1"
   id="svg111"
   sodipodi:docname="male-front.svg"
   width="197"
   height="496.98508"
   inkscape:version="1.4.4 (dcaf3e7d, 2026-05-05)"
   xmlns:inkscape="http://www.inkscape.org/namespaces/inkscape"
   xmlns:sodipodi="http://sodipodi.sourceforge.net/DTD/sodipodi-0.dtd"
   xmlns="http://www.w3.org/2000/svg"
   xmlns:svg="http://www.w3.org/2000/svg">
  <defs
     id="defs111" />
  <sodipodi:namedview
     id="namedview111"
     pagecolor="#ffffff"
     bordercolor="#000000"
     borderopacity="0.25"
     inkscape:showpageshadow="2"
     inkscape:pageopacity="0.0"
     inkscape:pagecheckerboard="0"
     inkscape:deskcolor="#d1d1d1"
     inkscape:zoom="1.4193807"
     inkscape:cx="89.475641"
     inkscape:cy="95.464168"
     inkscape:window-width="1083"
     inkscape:window-height="618"
     inkscape:window-x="0"
     inkscape:window-y="25"
     inkscape:window-maximized="0"
     inkscape:current-layer="svg111" />
  <g
     fill="none"
     stroke="#111111"
     stroke-width="1"
     id="g111"
     transform="translate(-50.5,-14.514929)">
    <path
       d="m 128,416 1,2 1,1 v 3 l 3,6 v 4 l -2,4 -1,4 -1,5 -1,-2 -1,-1"
       id="path12" />
    <path
       d="m 170,415 v 30 l -2,-2 -1,-4 -2,-7 v -4 l 3,-6 v -3"
       id="path13" />
    <path
       d="m 193,399 1,22 -1,11 -1,8 -3,12 -1,18 h -4 l -4,2 -1,-3 1,-1 1,-7 2,-4 6,-24 1,-5 1,-8 1,-9"
       id="path16"
       inkscape:label="right_soleus">
      <title
         id="title27">right_calf</title>
    </path>
    <path
       d="m 105,399 2,11 v 10 l 1,7 1,6 1,4 8,31 1,1 -1,3 -4,-2 -5,-1 v -2 l 1,-5 -1,-11 -3,-12 -1,-7 -1,-12"
       id="path17"
       inkscape:label="left_soleus">
      <title
         id="title26">left_calf</title>
    </path>
    <path
       d="m 190,379 2,5 v 5 l 1,1 v 4 l -1,12 -1,11 -1,8 -1,6 -2,8 -1,4 -4,12 v 4 l -1,4 -2,7 -1,1 -1,2 -2,-2 v -29 l 1,-11 1,-8 2,-11 4,-16 3,-9 2,-5 1,-1"
       id="path20"
       inkscape:label="right_tibialis_anterior">
      <title
         id="title25">right_calf</title>
    </path>
    <path
       d="m 108,379 1,2 1,1 2,5 4,12 1,4 2,9 1,5 1,6 1,8 1,10 v 30 l -2,2 -1,-2 -1,-1 -1,-4 -2,-11 -4,-12 -1,-4 -1,-4 -1,-5 -1,-6 -1,-9 -1,-9 -1,-15 1,-7"
       id="path21"
       inkscape:label="left_tibialis_anterior">
      <title
         id="title24">left_calf</title>
    </path>
    <path
       d="m 166,377 3,4 1,2 1,3 v 19 l -1,6 -1,6 -4,10 -2,-2 -1,-4 -1,-4 -1,-5 v -14 l 1,-4 1,-4 3,-7"
       id="path22"
       inkscape:label="right_gastrocnemicus">
      <title
         id="title23">right_calf</title>
    </path>
    <path
       d="m 132,377 1,5 1,4 3,7 1,4 v 15 l -1,5 -2,8 -2,2 -3,-7 -1,-4 -1,-5 -1,-6 v -19 l 1,-3 1,-2"
       id="path23"
       inkscape:label="left_gastrocnemicus">
      <title
         id="title22">left_calf</title>
    </path>
    <path
       d="m 175,349 3,2 6,1 v 14 l 1,3 1,2 2,2 3,1 v 3 l -3,4 -1,2 -2,6 -3,9 -3,12 -1,5 -1,6 -1,7 -1,8 -1,17 v 13 l 1,1 v 6 h 3 l 4,-2 5,-1 2,1 2,6 2,5 3,6 4,5 7,6 4,4 v 2 l -3,3 -2,1 -5,1 h -13 l -4,-1 -2,-1 -1,-1 -1,-2 -2,-6 -1,-6 -1,-2 -1,-2 -1,-1 -2,-1 h -2 l -4,-4 v -3 l 3,-7 1,-9 -1,-8 2,-8 1,-49 v -10 l -1,-4 -1,-3 -1,-2 -4,-5 v -2 -3 h 7 l 2,-2 1,-3 v -6"
       id="path27" />
    <path
       d="m 123,349 v 11 4 l 1,4 2,2 8,1 v 2 l -1,2 -4,5 -1,2 -1,3 -1,4 v 9 l 1,49 2,8 v 18 l 3,6 v 4 l -4,4 h -2 l -2,1 -1,1 -1,2 -2,6 -1,6 -1,2 -1,2 -1,1 -2,1 -4,1 H 96 l -4,-1 -2,-1 -3,-3 v -2 l 3,-3 9,-8 3,-4 3,-6 2,-5 2,-6 2,-1 5,1 4,2 h 3 v -5 l 1,-1 v -16 l -1,-15 -1,-8 -1,-8 -3,-15 -1,-4 -3,-10 -3,-8 -4,-6 v -2 l 2,-2 h 1 l 2,-2 1,-2 1,-3 1,-15 h 5"
       id="path28" />
    <path
       d="m 165,320 2,4 v 4 l 1,4 2,7 3,6 1,7 v 15 l -3,3 h -4 l -2,-1 -1,-1 -1,-2 v -6 l -2,-7 v -18 l 2,-10"
       id="path33"
       inkscape:label="left_vastus_medialis">
      <title
         id="title17">left_quadriceps</title>
    </path>
    <path
       d="m 133,320 2,5 2,9 v 19 l -2,8 v 6 l -2,2 -2,1 h -4 l -3,-3 v -14 l 1,-7 4,-10 3,-12"
       id="path34"
       inkscape:label="right_vastus_medialis">
      <title
         id="title16">right_quadriceps</title>
    </path>
    <path
       d="m 199,289 1,38 -1,9 -2,8 -3,10 -2,14 -3,5 -3,-3 -1,-2 -1,-4 v -9 l 1,-6 3,-6 1,-4 1,-5 3,-21 4,-20"
       id="path40"
       inkscape:label="left_vastus_lateralis">
      <title
         id="title19">left_quadriceps</title>
    </path>
    <path
       d="m 99,289 1,2 1,1 v 5 l 2,10 4,21 2,10 1,5 3,6 1,5 v 10 l -1,4 -1,2 -5,2 -1,-4 v -5 l -3,-14 -3,-9 -1,-5 -1,-9"
       id="path41"
       inkscape:label="right_vastus_lateralis">
      <title
         id="title18">right_quadriceps</title>
    </path>
    <path
       d="m 169,258 1,2 -1,2 -2,2 -6,12 -2,5 -1,4 -1,4 -1,5 -2,-7 -1,-7 1,-2 2,-3 9,-11 2,-4"
       id="path45"
       inkscape:label="left_gracilis" />
    <path
       d="m 129,258 3,3 4,7 3,4 4,4 2,4 -1,7 -2,7 -1,-5 -1,-4 -1,-4 -2,-5 -6,-12 -2,-2 -1,-2"
       id="path46"
       inkscape:label="right_gracilis" />
    <path
       d="m 177,255 1,8 -1,7 -2,11 -1,4 -1,4 -3,6 -3,11 -6,26 v 5 l -1,1 -1,2 -2,-6 -1,-8 v -3 l 1,-1 v -4 l 2,-6 8,-22 3,-10 2,-7 2,-7 1,-7"
       id="path47"
       inkscape:label="left_sartorius" />
    <path
       d="m 121,255 2,4 2,7 1,7 2,7 4,13 2,6 5,12 2,7 1,4 v 5 l -1,1 v 6 l -2,6 -2,-4 -3,-13 -1,-9 -2,-4 v -4 l -1,-4 -2,-7 -4,-10 -1,-4 -1,-6 -2,-12"
       id="path48"
       inkscape:label="right_sartorius" />
    <path
       d="m 182,253 3,4 5,8 1,2 1,2 2,6 3,8 1,3 v 4 l -1,5 -5,21 -3,20 -1,6 -1,3 -1,2 -4,4 h -3 l -2,-1 -3,-3 -1,-2 -1,-2 -3,-9 -1,-4 -1,-4 -1,-5 v -8 l 1,-5 3,-11 4,-10 1,-4 1,-5 1,-5 1,-7 v -6"
       id="path49"
       inkscape:label="left_rectus_femoris">
      <title
         id="title14">left_quadriceps</title>
    </path>
    <path
       d="m 118,252 2,7 v 7 l 1,6 1,6 1,5 1,4 3,6 2,7 3,12 1,5 -2,9 -3,12 -1,3 -3,6 -3,3 -2,1 h -3 l -4,-4 -1,-2 -1,-4 -1,-5 -1,-5 -5,-31 -3,-10 v -4 l 1,-3 5,-14 1,-2 3,-5 4,-6"
       id="path50"
       inkscape:label="right_rectus_femoris">
      <title
         id="title15">right_quadriceps</title>
    </path>
    <path
       d="m 228,249 4,4 6,3 1,1 1,2 2,4 3,7 1,3 v 6 l -4,8 -2,3 -2,3 -5,2 1,-2 4,-7 1,-3 v -3 l -2,-3 -3,-3 -2,-1 h -2 v 2 l -1,1 -3,7 -1,-2 -1,-7 v -3 l 1,-3 2,-2 1,-2 1,-4 v -4 l -2,-4"
       id="path51" />
    <path
       d="m 70,249 1,3 -2,4 v 4 l 1,4 1,2 2,2 1,2 v 5 l -1,6 -1,2 h -3 v -8 l -1,-2 h -2 l -2,1 -3,3 -2,3 v 3 l 1,3 5,9 -2,1 -3,-3 -2,-3 -2,-3 -4,-8 v -6 l 1,-3 4,-7 v -2 l 1,-2 1,-2 1,-1 6,-3"
       id="path52" />
    <path
       d="m 177,246 1,4 -2,4 -1,7 -6,21 -4,13 -3,9 -2,3 -1,3 -1,3 -1,4 -2,-6 v -12 l 3,-8 v -4 l 1,-4 1,-3 2,-5 2,-4 3,-6 2,-2 2,-4 3,-8"
       id="path53"
       inkscape:label="right_adductor_longus">
      <title
         id="title21">right_adductor</title>
    </path>
    <path
       d="m 121,246 2,2 2,7 3,6 4,6 5,10 1,3 1,3 4,16 v 13 l -2,4 -2,-4 -1,-5 -2,-3 -3,-9 -3,-10 -5,-17 -3,-11 -1,-7 -1,-1"
       id="path54"
       inkscape:label="left_adductor_longus">
      <title
         id="title20">left_adductor</title>
    </path>
    <path
       d="m 187,229 2,4 2,6 2,2 2,5 2,7 1,4 1,4 1,7 -1,19 -1,-2 -1,-1 -1,-5 -3,-9 -3,-6 -3,-5 -6,-7 -1,-2 v -6 l 1,-4 3,-5"
       id="path55"
       inkscape:label="left_gluteus_medius">
      <title
         id="title12">left_gluteal_muscles</title>
    </path>
    <path
       d="m 131,229 1,10 1,5 3,10 4,12 1,2 1,2 4,4 h 6 l 4,-4 1,-2 1,-2 2,-6 3,-9 2,-7 1,-4 1,-11 1,11 2,8 v 3 l -1,4 -1,3 -1,2 -3,4 -4,6 -3,4 -4,5 h -8 l -3,-5 -6,-7 -5,-7 -1,-2 -1,-3 -1,-6 2,-9"
       id="path56" />
    <path
       d="m 111,229 2,3 1,3 3,5 1,3 v 7 l -1,2 -5,6 -2,3 -3,5 -1,2 -2,5 v 3 l -1,3 -2,5 -1,1 -1,2 -1,-18 1,-7 1,-5 1,-4 3,-9 5,-11"
       id="path57"
       inkscape:label="right_gluteus_medius">
      <title
         id="title13">gluteal_muscles</title>
    </path>
    <path
       d="m 185,210 2,6 v 11 l -1,3 -4,8 -2,3 -2,3 -5,7 -2,2 -2,-8 v -19"
       id="path59"
       inkscape:label="left_external_obliques" />
    <path
       d="m 151,210 h 8 l 4,1 3,3 v 24 l -1,4 -1,4 -2,7 -3,9 -2,5 -1,2 -5,5 -1,-2 -1,-1 1,-14 v -9 -15 -9 l -1,-12"
       id="path60"
       inkscape:label="left_rectus_abdominis" />
    <path
       d="m 139,210 h 8 l 2,2 -2,62 -5,-5 -1,-3 -3,-7 -1,-3 -1,-3 -4,-16 v -23 l 3,-3"
       id="path61"
       inkscape:label="right_rectus_abdominis" />
    <path
       d="m 113,210 16,16 v 20 l -2,7 -2,-2 -2,-3 -8,-12 -3,-6 -1,-4 v -10"
       id="path62"
       inkscape:label="right_external_obliques" />
    <path
       d="m 131,209 2,3 -2,11"
       id="path63" />
    <path
       d="m 149,202 1,3 2,2 3,1 -2,1 -1,1 -3,1 -4,-2 h -6 l 4,-1 3,-1 2,-2"
       id="path64" />
    <path
       d="m 208,194 3,3 3,4 2,3 1,17 -1,5 -3,-5 -2,-5 -1,-3 -1,-3 -1,-5 -1,-5"
       id="path65" />
    <path
       d="m 153,194 h 2 l 5,1 2,1 3,3 1,2 1,3 v 3 l -1,2 -3,1 -3,-1 -1,-1 -6,-1 -3,-3 v -7"
       id="path66"
       inkscape:label="left_rectus_abdominis" />
    <path
       d="m 144,194 2,1 2,2 v 7 l -3,3 -10,3 -3,-1 v -8 l 1,-2 3,-3 2,-1"
       id="path67"
       inkscape:label="right_rectus_abdominis" />
    <path
       d="m 90,194 1,6 -1,6 -1,4 -3,9 -4,7 -1,-5 1,-16 1,-2 1,-2 3,-4"
       id="path68" />
    <path
       d="m 186,193 1,10 -1,4 -1,2 -15,15 -1,-17 2,-5 4,-1 h 3 l 2,-1 3,-2"
       id="path69"
       inkscape:label="left_external_obliques" />
    <path
       d="m 112,193 6,7 3,1 3,1 4,1 1,3 -1,18 -15,-15 -1,-3 -1,-3"
       id="path70"
       inkscape:label="right_external_obliques" />
    <path
       d="m 149,190 2,2 3,1 -2,1 -2,2 -1,3 -1,-3 -2,-2 -2,-1 3,-1"
       id="path71" />
    <path
       d="m 206,185 3,3 2,1 h 2 l 2,-1 3,-3 1,3 -2,7 -3,6 -3,-5 -4,-4 -1,-2 v -2"
       id="path72" />
    <path
       d="m 187,185 1,3 -3,6 -2,2 v 1 l -1,1 h -1 l -2,2 -3,1 -6,-1 v -4 l 1,-3 2,-2 v -1 l 8,-1 2,-1"
       id="path73"
       inkscape:label="left_external_obliques" />
    <path
       d="m 111,185 4,3 2,1 h 7 l 2,2 1,2 1,2 -1,7 -5,-1 -3,-1 -6,-6 -3,-6"
       id="path74"
       inkscape:label="right_external_obliques" />
    <path
       d="m 80,185 3,3 h 2 l 2,1 2,-1 3,-3 1,3 -1,3 -5,5 -4,6 -2,-2 v -5 l -2,-7"
       id="path75" />
    <path
       d="m 151,179 h 7 l 3,1 2,1 2,1 4,4 v 4 l -1,3 -2,2 h -4 l -4,-1 -6,-2 -2,-2 -1,-4 v -3"
       id="path76"
       inkscape:label="left_rectus_abdominis" />
    <path
       d="m 140,179 8,1 1,2 v 6 l -1,2 -2,2 -3,1 -3,1 -4,1 h -4 l -2,-2 v -3 l -1,-1 v -2 l 1,-2 3,-3 2,-1 2,-1"
       id="path77"
       inkscape:label="right_rectus_abdominis" />
    <path
       d="m 189,179 v 2 l -2,3 -3,3 -2,1 -3,1 h -5 l -2,-3 1,-5 1,-1 1,-2 7,1 4,-1"
       id="path78"
       inkscape:label="left_external_obliques" />
    <path
       d="m 172,176 2,2 -2,5 1,7 -3,4 -1,4 1,5 -2,8 -1,8 -2,-8 2,-3 v -6 l -3,-5 2,-1 2,-2 1,-3 v -6 l -2,-2 2,-1 2,-2"
       id="path79" />
    <path
       d="m 126,176 1,4 2,2 2,1 -2,2 v 6 l 1,3 2,2 2,1 -1,2 -2,3 -1,7 -2,-7 1,-5 -1,-3 -3,-5 1,-6 -2,-5"
       id="path80" />
    <path
       d="m 109,175 4,3 3,1 7,-1 1,2 1,1 v 3 l 1,1 v 2 l -2,2 h -5 l -3,-1 -2,-1 -3,-3 -2,-3 -1,-3"
       id="path81"
       inkscape:label="right_external_obliques" />
    <path
       d="m 149,174 3,3 -2,2 h -2 l -2,-2"
       id="path82" />
    <path
       d="m 223,173 2,8 v 6 l 1,3 6,11 1,6 1,8 1,8 1,9 v 9 l 2,9 -2,5 -3,-2 -5,-5 -2,-3 -2,-3 -1,-2 -4,-10 -2,-7 -1,-5 v -11 l 1,-9 1,-7 1,-5 3,-9"
       id="path83" />
    <path
       d="m 75,173 1,4 2,4 1,5 1,5 1,6 1,9 v 12 l -1,5 -1,4 -1,3 -1,3 -2,5 -1,2 -4,7 -7,7 h -4 v -2 l 1,-9 1,-10 1,-9 1,-8 1,-9 1,-6 2,-4 5,-9 1,-7"
       id="path84" />
    <path
       d="m 105,163 5,5 2,1 h 12 1 l 1,5 -1,2 -2,2 h -9 l -2,-1 -6,-6 -1,-2 -1,-3"
       id="path85"
       inkscape:label="right_external_obliques" />
    <path
       d="m 194,162 1,2 -2,3 v 2 l -1,2 -3,4 -1,1 -2,1 -2,1 h -9 l -2,-2 -1,-2 1,-5 h 1 l 2,-1 10,1 2,-1"
       id="path86"
       inkscape:label="left_external_obliques" />
    <path
       d="m 152,161 h 8 l 3,1 2,1 4,4 1,2 1,3 v 6 l -1,2 -4,1 -3,-2 -3,-1 h -3 l -4,-1 -3,-3 v -3 l -1,-1 v -2 l 1,-5"
       id="path87"
       inkscape:label="left_rectus_abdominis" />
    <path
       d="m 138,161 h 8 l 2,2 1,4 v 4 l -1,3 -3,3 -7,1 -3,2 -3,1 -4,-1 -1,-2 v -6 l 1,-3 1,-2 4,-4 2,-1"
       id="path88"
       inkscape:label="right_rectus_abdominis" />
    <path
       d="m 149,152 7,8 -5,1 -2,2 -2,-2 -5,-1"
       id="path89" />
    <path
       d="m 193,148 2,2 v 9 l -2,3 -6,6 -3,1 h -4 l -5,-1 -2,-1 -2,-1 -4,-3 14,-1 3,-1 2,-1 3,-3 2,-5"
       id="path90"
       inkscape:label="left_external_obliques" />
    <path
       d="m 105,147 1,4 3,6 3,3 2,1 3,1 14,1 -4,3 -2,1 -2,1 -5,1 h -4 l -3,-1 -6,-6 -1,-2 -1,-2 v -7"
       id="path91"
       inkscape:label="right_external_obliques" />
    <path
       d="m 220,144 2,4 1,4 1,13 -1,5 -1,-2 -1,-1 -3,-9 v -10"
       id="path92"
       inkscape:label="left_brachialis">
      <title
         id="title11">left_biceps</title>
    </path>
    <path
       d="m 78,144 1,2 1,1 v 11 l -2,7 -1,3 -2,2 -1,-4 1,-13 1,-5"
       id="path93"
       inkscape:label="right_brachialis">
      <title
         id="title8">right_biceps</title>
    </path>
    <path
       d="m 197,137 2,4 2,3 3,7 4,12 1,4 1,5 v 5 l 2,5 v 6 h -2 l -6,-6 -1,-2 -1,-2 -1,-3 -1,-4 -1,-4 v -5 l -1,-1 -1,-3 -1,2 -2,-13 v -6 l 1,-2"
       id="path94"
       inkscape:label="left_short_head">
      <title
         id="title9">left_biceps</title>
    </path>
    <path
       d="m 100,138 h 3 l 1,3 v 6 l -2,12 -2,-1 v 3 l -1,1 v 5 l -1,4 -1,4 -1,3 -1,2 -1,2 -6,6 -3,-2 1,-4 2,-5 1,-9 1,-5 3,-9 2,-5 2,-5 2,-4"
       id="path95"
       inkscape:label="right_short_head">
      <title
         id="title6">right_biceps</title>
    </path>
    <path
       d="m 199,133 h 2 l 2,1 3,2 6,6 1,2 1,2 2,5 2,6 1,6 3,6 v 6 l -1,3 -1,3 -1,2 -6,3 -1,-2 -1,-5 -2,-14 -1,-4 -1,-3 -3,-8 -6,-12 -1,-3"
       id="path96"
       inkscape:label="left_long_head">
      <title
         id="title10">left_biceps</title>
    </path>
    <path
       d="m 97,133 h 2 l 2,3 -1,2 -1,2 -5,10 -2,6 -3,9 -1,5 -1,10 -1,4 -1,2 -2,1 -4,-4 -1,-2 -1,-3 -1,-3 v -5 l 4,-13 1,-3 1,-3 2,-5 1,-2 2,-3 5,-5 3,-2"
       id="path97"
       inkscape:label="right_long_head">
      <title
         id="title7">right_biceps</title>
    </path>
    <path
       d="m 158,111 h 9 l 7,1 9,3 8,4 3,2 5,5 v 5 l -1,2 -1,2 -2,2 -1,2 -1,7 -2,6 -1,3 -2,2 v 1 l -1,1 -2,1 -2,1 -5,1 h -8 l -9,-1 -3,-1 -2,-1 -6,-6 -1,-3 v -6 l 2,-13 v -14 l 1,-3 2,-2"
       id="path98"
       inkscape:label="left_sternal_head">
      <title
         id="title3">pectoralis_major</title>
    </path>
    <path
       d="m 131,111 h 9 l 4,1 2,2 1,2 v 14 l 1,11 1,1 v 9 l -1,2 -6,6 -2,1 -3,1 -8,1 h -9 l -5,-1 -2,-1 -4,-4 -1,-2 -1,-2 -1,-3 -1,-3 -1,-7 -1,-2 -3,-4 -1,-2 v -5 l 5,-5 3,-2 8,-4 3,-1 3,-1 4,-1"
       id="path99"
       inkscape:label="right_sternal_head">
      <title
         id="title2">pectoralis_major</title>
    </path>
    <path
       d="M 193.10099,103.8165 200,103 l 2,1 2,1 3,2 7,7 1,2 1,2 1,3 1,5 1,7 v 10 l -2,9 -1,-2 -1,-1 -1,-4 -2,-4 -5,-5 -3,-2 -3,-1 -2,-2 1,-4 -2,-3 -3,-3 -3,-2 -8,-4 -5,-2 -3,-1 -5,-1 2,-2 3,-1 7,-2 5,-1 5,-1"
       id="path100"
       sodipodi:nodetypes="cccccccccccccccccccccccccccccccccc"
       inkscape:label="left_deltoid" />
    <path
       d="m 98,103 h 2 l 5,1 10,2 4,1 3,2 h 3 l 2,2 -5,1 -3,1 -5,2 -8,4 -3,3 h -1 l -2,2 -2,4 1,3 -2,2 -3,1 -3,2 -5,5 -2,4 -1,4 -1,1 -1,2 -2,-9 v -10 l 1,-7 1,-5 1,-3 1,-2 2,-3 6,-6 3,-2 2,-1"
       id="path101"
       inkscape:label="right_deltoid" />
    <path
       d="m 139,99 3,6 2,3 4,3 h 2 l 5,-4 3,-5 1,-3 2,-1 2,2 3,4 4,2 1,-7 4,3 3,1 h 5 l 5,-3 h 4 l 3,4 -5,1 h -4 l -4,1 -4,1 -10,4 h -13 l -2,1 -1,1 -1,2 -0.92334,0.57363 L 149,115.56549 147.92334,115.45822 147,115 l -1,-2 -4,-2 h -12 l -10,-4 -4,-1 -4,-1 h -4 l -5,-4 3,-1 h 4 l 5,3 h 6 l 2,-1 4,-3 1,7 4,-2 3,-4"
       id="path102"
       sodipodi:nodetypes="ccccccccccccccccccccccccccccccccccccccccccccccccc"
       inkscape:label="clavicular_head">
      <title
         id="title1">pectoralis_major</title>
    </path>
    <path
       d="m 173,96 h 2 l 3,2 3,1 5,1 -2,2 h -8 l -2,-1 -4,-4"
       id="path103"
       inkscape:label="left_upper_trapezius">
      <title
         id="title5">left_trapezius</title>
    </path>
    <path
       d="m 125,96 3,1 -4,4 -2,1 h -8 l -2,-2 5,-1 3,-1 3,-2"
       id="path104"
       inkscape:label="right_upper_trapezius">
      <title
         id="title4">right_trapezius</title>
    </path>
    <path
       d="m 163,91 2,-1 3,3 1,2 1,3 -1,7 -2,-2 h -1 l -3,-3 -2,-3 v -2 l 1,-2"
       id="path105" />
    <path
       d="m 132,91 h 3 l 2,4 v 2 l -2,3 -4,4 -2,1 -1,-6 1,-3 1,-2 2,-2"
       id="path106" />
    <path
       d="m 141,82 4,3 3,1 h 2 l 3,-1 4,-3 1,3 -1,3 -6,18 -1,1 -1,2 -1,-2 -1,-1 -1,-5 -6,-16"
       id="path107" />
    <path
       d="m 166,78 -1,8 -1,3 -6,12 -4,6 -2,2 -1,-3 1,-1 v -3 l 7,-21 2,-2"
       id="path108"
       inkscape:label="left_sternocleidomastoid" />
    <path
       d="m 134,77 2,1 3,3 1,3 2,6 5,15 -1,4 -2,-2 -2,-3 -3,-5 -2,-4 -3,-6 -1,-3"
       id="path109"
       inkscape:label="right_sternocleidomastoid" />
    <path
       d="m 144,16 h 10 l 3,1 2,1 2,1 5,5 2,3 1,3 1,4 1,9 v 22 l -1,3 -1,2 -1,2 -6,6 -6,5 -2,1 -3,1 h -4 l -3,-1 -3,-2 -5,-4 -6,-6 -1,-2 -1,-2 -1,-4 V 44 l 1,-9 1,-5 1,-3 2,-3 5,-5 2,-1 2,-1"
       id="path110" />
    <path
       d="m 145,15 -4,1 -2,1 -2,1 -3,2 -2,2 -3,6 -1,3 -1,5 -1,12 v 15 l 1,5 1,2 2,2 1,2 1,2 v 14 l -3,3 -6,3 -3,1 -3,1 -9,1 -4,1 -4,1 -6,3 -3,2 -7,7 -2,3 -1,3 -1,4 -1,5 v 7 l -1,7 -3,7 -1,6 v 14 l -1,14 -1,5 -2,4 -4,7 -1,3 -1,7 -1,8 -1,9 v 9 l -1,9 -1,8 -1,4 -1,3 -6,11 -1,3 v 6 l 4,8 4,6 2,3 3,1 2,-2 -1,-2 -5,-9 v -4 l 8,-5 v 8 l 1,2 4,-1 1,-4 1,-6 v -3 l -1,-3 -1,-2 -2,-2 -1,-3 v -6 l 1,-3 3,-7 4,-9 8,-15 2,-5 1,-3 1,-4 1,-5 1,-5 v -7 l 1,-4 4,-10 2,-7 v -4 l 2,-6 1,2 1,1 1,5 3,6 1,4 1,4 1,10 1,13 v 10 l -1,13 -1,3 -1,3 -5,9 -1,3 -1,3 -1,4 -1,4 -1,5 -1,9 v 50 l 1,11 1,6 2,9 3,9 1,5 1,6 v 17 l -2,7 -1,8 v 18 l 1,11 1,9 1,7 2,5 1,7 v 10 l -1,5 -1,3 -2,5 -3,6 -2,3 -13,12 -1,4 4,4 2,1 8,1 h 7 l 7,-1 2,-1 2,-2 1,-2 1,-3 1,-3 v -3 l 1,-3 1,-2 3,-3 h 2 l 2,-2 h 1 l 1,-1 1,-2 v -3 l -1,-3 -2,-3 -1,-7 v -16 l 1,-7 1,-4 1,-4 4,-11 2,-9 1,-5 v -12 l -1,-5 -4,-11 v -11 l 3,-19 1,-6 3,-9 1,-5 1,-9 1,-17 v -20 l 2,-6 7,1 1,4 1,19 v 19 l 1,8 1,6 3,9 1,5 2,13 1,7 v 11 l -1,4 -2,4 -1,4 -1,4 v 11 l 1,5 1,5 1,4 1,4 4,11 1,4 1,7 v 18 l -1,6 -2,3 -1,3 v 3 l 1,2 1,1 h 1 l 2,2 h 2 l 3,3 1,2 1,3 1,3 v 3 l 1,3 1,2 2,2 2,1 8,1 h 7 l 7,-1 2,-1 3,-2 1,-2 -1,-4 -13,-12 -2,-3 -1,-2 -1,-2 -2,-5 -1,-3 -1,-3 -1,-4 v -9 l 1,-8 2,-5 1,-6 1,-10 1,-10 v -20 l -1,-8 -2,-7 v -16 l 1,-6 2,-9 3,-9 1,-5 1,-5 1,-9 v -55 l -1,-7 -1,-5 -1,-5 -3,-9 -4,-7 -2,-5 -1,-3 -1,-13 v -10 l 1,-13 1,-10 1,-4 1,-4 4,-11 1,-1 1,-2 1,5 1,4 1,4 2,7 4,10 v 7 l 1,6 1,5 1,4 1,3 2,5 3,4 6,13 6,14 1,3 v 6 l -1,3 -3,4 -1,3 v 3 l 1,1 v 4 l 1,4 1,2 4,-1 2,-10 6,6 v 4 l -5,9 2,4 2,-1 2,-3 4,-6 4,-8 v -6 l -1,-3 -5,-9 -2,-5 -1,-5 -1,-8 -1,-9 -1,-18 -1,-7 -1,-7 -1,-3 -2,-5 -3,-4 -1,-2 -1,-6 -1,-13 v -15 l -1,-5 -3,-7 -1,-8 v -7 l -1,-5 -1,-3 -1,-3 -1,-2 -9,-9 -8,-4 -7,-2 h -5 l -5,-1 -3,-1 -3,-1 -2,-1 -2,-1 -3,-2 -2,-2 V 76 l 1,-2 3,-4 1,-2 1,-4 V 46 l -1,-10 -1,-5 -1,-3 -3,-6 -2,-2 -3,-2 -2,-1 -2,-1 -4,-1"
       id="path111" />
  </g>
</svg>
