<?xml version="1.0" encoding="UTF-8" standalone="no"?>
<svg
   viewBox="0 0 193 492.9903"
   version="1.1"
   id="svg62"
   sodipodi:docname="male-back (1).svg"
   width="193"
   height="492.9903"
   inkscape:version="1.4.4 (dcaf3e7d, 2026-05-05)"
   xmlns:inkscape="http://www.inkscape.org/namespaces/inkscape"
   xmlns:sodipodi="http://sodipodi.sourceforge.net/DTD/sodipodi-0.dtd"
   xmlns="http://www.w3.org/2000/svg"
   xmlns:svg="http://www.w3.org/2000/svg">
  <defs
     id="defs62" />
  <sodipodi:namedview
     id="namedview62"
     pagecolor="#ffffff"
     bordercolor="#000000"
     borderopacity="0.25"
     inkscape:showpageshadow="2"
     inkscape:pageopacity="0.0"
     inkscape:pagecheckerboard="0"
     inkscape:deskcolor="#d1d1d1"
     inkscape:zoom="1.1276191"
     inkscape:cx="16.40625"
     inkscape:cy="71.832769"
     inkscape:window-width="1158"
     inkscape:window-height="535"
     inkscape:window-x="0"
     inkscape:window-y="25"
     inkscape:window-maximized="0"
     inkscape:current-layer="svg62" />
  <g
     fill="none"
     stroke="#111111"
     stroke-width="1"
     id="g62"
     transform="translate(-67.5,-18.50971)">
    <path
       d="m 197,431 5,5 3,2 h 2 l 2,1 2,2 -1,40 v 4 h 3 l 3,3 v 3 l -1,4 -2,4 v 6 l -4,4 -3,1 h -4 l -2,-1 -2,-2 -1,-4 1,-14 v -4 l -1,-15 -1,-6 -1,-4 -1,-3 -2,-5 -4,-7 -1,-3 2,-2 5,-4 1,-3"
       id="path2" />
    <path
       d="m 131,431 2,2 v 2 l 6,5 2,2 -2,5 -6,12 -1,5 -1,6 -1,14 v 5 l 1,14 -1,3 -1,2 -1,1 -2,1 h -4 l -3,-1 -4,-4 v -6 l -2,-4 -1,-4 v -3 l 3,-3 3,-1 v -2 l -1,-41 2,-2 7,-3"
       id="path3" />
    <path
       d="m 190,374 2,2 1,3 2,4 -1,21 2,18 v 9 l -1,2 -1,2 -5,5 -3,-1 -1,-2 -1,-3 -1,-6 -1,-17 -1,-23 v -2 l 4,-4 2,-3 1,-3"
       id="path4" />
    <path
       d="m 138,374 2,2 1,3 2,3 4,4 v 2 l -2,19 v 20 l -1,6 -1,4 -1,2 -3,1 -5,-5 -1,-2 -1,-2 v -9 l 2,-23 -1,-12 v -5 l 1,-3 1,-2"
       id="path5" />
    <path
       d="m 201,372 1,2 1,4 2,2 1,3 v 7 l 1,4 3,8 1,5 1,7 v 22 l -1,2 -2,1 -3,-2 -3,-1 -6,-6 -1,-3 -1,-10 v -39 l 1,-4"
       id="path6" />
    <path
       d="m 127,372 2,-1 2,2 1,2 1,3 v 38 l -1,10 -1,4 -6,6 -6,3 -3,-1 v -24 l 1,-7 1,-5 3,-8 1,-5 v -6 l 1,-3 3,-6"
       id="path7" />
    <path
       d="m 194,351 1,5 1,4 1,3 3,6 -4,4 v 2 l -1,1 -1,2 -2,-2 -2,-3 v -5 l 2,-6 v -5"
       id="path8" />
    <path
       d="m 134,351 2,6 v 5 l 2,6 v 5 l -2,3 -2,2 -2,-3 -1,-3 -3,-3 1,-2 2,-4 1,-3 v -4"
       id="path9" />
    <path
       d="m 179,332 v 4 l 4,16 4,11 1,7 1,1 v 2 l -1,3 -1,2 -2,3 -4,4 -2,-3 -1,-2 -2,-7 -1,-6 v -11 l -2,-10 v -6 l 3,-5"
       id="path10" />
    <path
       d="m 152,332 v 3 l 3,5 v 5 l -2,9 v 13 l -1,5 -1,4 -2,6 -1,1 -1,2 -5,-5 -1,-2 -1,-2 -1,-3 v -3 l 4,-11 3,-11 3,-12"
       id="path11" />
    <path
       d="m 189,297 1,5 1,11 v 10 l 1,10 2,9 v 5 l -1,6 -1,7 -1,5 -2,4 -1,-4 -4,-11 -2,-8 -3,-12 -1,-5 -1,-7 1,-9 1,-6 2,-8 2,-2"
       id="path12" />
    <path
       d="m 141,296 h 4 l 1,2 1,1 1,4 1,5 1,5 v 15 l -1,5 -1,5 -4,16 -2,7 -3,7 -1,-2 -1,-1 -1,-5 -1,-6 v -6 l -1,-1 v -5 l 1,-9 2,-11 v -10 l 1,-10"
       id="path13" />
    <path
       d="m 197,290 2,2 2,5 1,3 1,4 1,4 v 14 l 1,11 2,8 v 2 l -2,9 1,19 -1,8 -2,-3 -3,-6 -2,-5 -1,-3 -1,-3 -1,-6 -1,-6 -1,-9 -2,-19 -1,-11 1,-14 4,-3"
       id="path14" />
    <path
       d="m 131,290 2,1 4,3 1,13 -2,21 -1,10 -1,8 -1,7 -1,5 -1,4 -1,3 -3,7 -4,7 -1,-9 1,-17 -2,-9 v -3 l 2,-8 v -12 l 1,-13 1,-5 1,-3 1,-3 2,-5"
       id="path15" />
    <path
       d="m 167,286 7,7 6,3 1,4 -1,4 -2,6 -1,6 v 12 l -1,5 -1,3 -1,1 -1,2 -1,-2 -1,-1 -1,-4 -2,-8 -1,-5 -1,-20"
       id="path16" />
    <path
       d="m 161,285 1,8 -1,25 -1,6 -3,12 -1,1 -1,2 -1,-2 -1,-1 -1,-3 -1,-4 v -11 l -1,-8 -2,-5 v -4 l -1,-1 1,-4 6,-3"
       id="path17" />
    <path
       d="m 211,281 1,24 -1,14 -1,6 -1,6 -2,6 -2,-8 -1,-13 v -9 l 1,-6 1,-6 1,-5 1,-4"
       id="path18" />
    <path
       d="m 117,281 1,2 1,1 1,3 1,3 1,5 1,6 1,7 v 6 l -1,14 -2,9 -2,-6 -1,-6 -1,-6 -1,-13"
       id="path19" />
    <path
       d="m 206,240 2,3 1,2 1,4 1,4 1,6 v 18 l -4,8 -1,3 -1,4 v 5 l -2,7 -1,-2 -1,-1 -1,-5 -2,-3 -1,-3 v -2 l 2,-3 4,-12 1,-4 1,-6 -1,-17"
       id="path22" />
    <path
       d="m 122,240 1,5 -1,20 1,4 1,4 4,12 2,3 v 2 l -2,3 -2,8 -1,1 -1,2 -2,-7 v -5 l -1,-4 -5,-11 -1,-8 1,-11 1,-5 1,-5 1,-3"
       id="path23" />
    <path
       d="m 178,230 2,1 7,4 3,2 3,2 9,9 2,3 1,2 v 14 l -1,4 -1,4 -1,3 -1,3 -2,5 -2,2 v 1 l -1,1 -5,4 -2,1 -2,1 h -6 l -3,-1 -3,-2 -8,-8 -1,-2 -1,-2 -1,-3 1,-26 h 3 l 2,-2 1,-2 1,-4 v -3 l 1,-4 1,-2 1,-2"
       id="path24" />
    <path
       d="m 150,230 3,3 1,2 1,3 1,3 v 4 l 1,3 1,2 2,2 3,3 v 2 l 1,20 -1,4 -1,2 -1,2 -8,8 -3,2 -3,1 h -6 l -2,-1 -2,-1 -3,-2 -3,-3 -2,-3 -1,-2 -3,-9 -1,-4 -1,-4 -1,-8 v -3 l 1,-3 1,-2 2,-3 9,-9 3,-2 3,-2 5,-3 2,-1"
       id="path25" />
    <path
       d="m 183,228 h 10 l 4,1 2,1 2,2 3,6 1,3 -1,9 -2,-2 -8,-9 -3,-2 -8,-4 -4,-3"
       id="path26" />
    <path
       d="m 136,228 h 10 l 1,1 2,1 -4,3 -5,2 -3,2 -3,2 -8,9 -2,2 -1,-9 1,-3 3,-6 2,-2 2,-1"
       id="path27" />
    <path
       d="m 190,223 2,1 3,2 3,1 4,1 -1,3 -2,-1 -4,-2 -10,-1"
       id="path28" />
    <path
       d="m 138,223 5,4 -10,1 -4,1 -2,2 v -4 h 3 l 3,-1 3,-2"
       id="path29" />
    <path
       d="m 199,210 2,4 -1,13 -4,-1 -4,-2 -2,-1 -1,-6 2,-2 6,-3"
       id="path30" />
    <path
       d="m 129,210 3,3 5,2 2,2 v 4 l -3,3 -2,1 -2,1 -4,1 -1,-14 1,-1"
       id="path31" />
    <path
       d="m 222,197 2,2 h 1 l 5,5 2,3 3,5 1,2 1,2 1,3 2,7 v 3 l 2,7 1,3 2,5 1,2 5,6 1,5 4,7 2,5 1,3 v 5 l -4,8 -4,6 -3,3 -1,-3 4,-7 1,-3 v -3 l -9,-6 v 7 l -1,2 h -3 l -1,-5 v -7 -2 l 3,-4 1,-3 v -6 l -1,-3 -1,-3 -3,-7 -11,-22 -2,-5 -1,-3 -1,-4 -1,-5"
       id="path32" />
    <path
       d="m 106,197 1,4 -1,1 v 4 l -1,4 -3,9 -8,15 -7,16 -1,3 v 7 l 1,3 3,4 1,4 -2,5 -2,6 -2,-2 -2,-9 -2,2 h -1 l -1,1 -3,4 v 4 l 5,9 -1,3 -3,-3 -2,-3 -2,-3 -4,-8 v -6 l 2,-5 5,-9 1,-5 5,-6 1,-2 2,-6 3,-9 1,-7 1,-3 1,-3 1,-2 1,-2 3,-5 2,-3 6,-6"
       id="path33" />
    <path
       d="m 240,192 2,2 1,2 1,2 1,3 1,5 1,8 2,17 v 9 l 1,1 -1,8 -2,-2 -1,-2 -1,-2 -4,-12 -2,-7 -3,-12 v -12 l 1,-3"
       id="path35" />
    <path
       d="m 88,192 3,5 1,3 v 11 l -1,5 -1,4 -2,7 -2,7 -1,3 -1,3 -2,5 -2,3 -2,2 -1,-2 2,-9 v -9 l 2,-17 1,-8 1,-5 3,-6"
       id="path36" />
    <path
       d="m 170,170 2,3 3,6 7,16 2,5 1,3 1,3 1,4 1,4 1,6 v 3 l -3,3 -5,1 -3,2 -3,3 -1,2 -1,2 -1,3 -1,8 -1,2 -2,2 -4,-1 v -71 l 1,-2"
       id="path39" />
    <path
       d="m 158,170 3,4 2,3 1,10 -1,14 v 9 14 9 15 3 h -3 l -2,-2 -1,-3 -1,-3 v -4 l -1,-3 -1,-2 -1,-2 -3,-3 -8,-3 -3,-3 v -4 l 1,-5 1,-4 1,-4 1,-3 1,-3 2,-5 3,-7 4,-9"
       id="path40" />
    <path
       d="m 225,159 4,2 2,-2 4,6 2,1 v 11 l 1,10 2,4 -4,7 -1,4 -1,8 -2,-4 -2,-3 -4,-4 h -1 l -3,-6 4,-1 2,-2 1,-2 v -3 l -1,-7 -1,-6 -1,-5 -1,-4 -1,-1"
       id="path41" />
    <path
       d="m 97,159 3,2 3,-2 1,3 -1,1 -1,4 -1,5 -1,6 -1,7 v 4 l 3,3 5,3 -3,3 -6,5 -2,4 -2,2 -1,-7 -1,-3 -1,-3 -2,-7 1,-3 v -9 l 1,-11"
       id="path42" />
    <path
       d="m 215,148 1,3 7,7 1,2 1,5 2,10 1,6 v 8 l -3,3 -5,-1 -1,-2 -4,-13 -1,-4 -1,-4 v -5 l -2,-6"
       id="path43" />
    <path
       d="m 114,147 2,4 v 10 l -1,7 -1,4 -2,7 -3,9 -2,4 h -4 l -3,-3 v -9 l 1,-6 2,-5 v -5 l 1,-4 1,-2 6,-6"
       id="path44" />
    <path
       d="m 227,141 5,3 2,2 1,2 1,4 -2,11 v -1 l -2,-2 -1,-2 -1,-2 -4,-12"
       id="path46" />
    <path
       d="m 186,142 3,-1 3,2 7,2 6,1 h 3 l 1,-1 3,1 v 6 l -1,1 v 7 l -4,8 v 3 l -3,5 v 5 l -2,5 v 10 l -1,11 -5,5 -3,2 -4,2 -2,-4 v -4 l -1,-4 -2,-5 -2,-5 -3,-7 -5,-9 v -2 l -4,-8 2,-4 5,-7 5,-9 4,-5"
       id="path47" />
    <path
       d="m 139,141 3,1 v 1 l 2,2 3,5 4,6 6,10 1,3 -1,2 -4,7 -5,11 -3,7 -2,5 -1,3 -2,8 -1,4 -2,-1 -4,-2 -6,-6 -1,-7 v -13 l -1,-5 -1,-5 -1,-3 -2,-3 v -3 l -4,-8 -1,-6 -1,-7 1,-3 4,2 h 3 l 6,-1 7,-3"
       id="path48" />
    <path
       d="m 101,141 1,3 -2,3 -1,6 -1,3 -1,2 -1,2 -4,4 -1,-3 1,-10 1,-3 1,-2 2,-2"
       id="path49" />
    <path
       d="m 218,133 5,5 1,1 1,2 2,5 1,3 1,3 1,5 -1,3 h -2 l -3,-2 -8,-8 -1,-2 -1,-2 v -5 l 2,-3 v -3"
       id="path50" />
    <path
       d="m 110,133 1,2 1,1 2,5 v 5 l -1,2 -1,2 -8,8 -3,2 -3,-1 v -3 l 1,-4 3,-9 1,-2 1,-2 1,-1"
       id="path51" />
    <path
       d="m 212,124 2,2 v 2 l 2,2 1,2 -1,5 -1,2 -1,2 -4,4 h -9 l -4,-1 -7,-3 2,-2 6,-1 6,-3 3,-3"
       id="path52" />
    <path
       d="m 116,124 2,4 2,3 4,4 6,3 5,1 1,1 2,1 -4,2 -4,1 -4,1 h -8 l -4,-4 -1,-2 -1,-2 -1,-5 3,-6"
       id="path53" />
    <path
       d="m 197,112 h 2 l 3,1 7,4 4,4 -1,2 -2,4 -3,4 -4,4 -6,3 -3,1 -5,1 v -3 l 1,-3 1,-4 v -4 l 1,-4 1,-3 1,-4"
       id="path54" />
    <path
       d="m 129,112 h 2 l 2,2 1,2 1,2 1,4 1,4 2,9 1,4 h -3 l -3,-1 h -3 l -6,-3 -5,-5 -2,-3 -3,-6 4,-4 5,-3 2,-1"
       id="path55" />
    <path
       d="m 196,104 1,-1 h 11 l 3,1 5,2 3,2 5,4 1,1 3,4 1,2 1,2 1,4 1,6 1,10 -1,3 -2,-1 -3,-2 -3,-2 -6,-6 -2,-3 -3,-6 v -4 l -3,-3 -5,-3 -2,-1 -3,-1 -5,1 -1,2 -1,2 -1,3 -1,4 v 4 l -2,8 -1,1 -1,2 -1,-2 -1,-1 -1,-3 v -8 l 3,-7 -2,-2 -3,-1 v -7 l 2,-4"
       id="path56" />
    <path
       d="m 120,103 h 10 l 15,2 1,3 -1,8 h -2 l -2,3 2,3 1,4 v 7 l -1,3 -1,1 -1,2 -1,-2 -1,-1 -1,-4 -3,-15 -1,-3 -2,-2 h -4 l -3,1 -2,1 -5,3 -3,3 v 4 l -1,3 -2,3 -3,4 -4,4 -4,3 -5,3 -1,-3 1,-11 1,-5 1,-4 1,-2 1,-2 2,-3 3,-3 4,-3 8,-4"
       id="path57" />
    <path
       d="m 167,66 h 2 l 6,5 2,2 v 1 l 3,3 v 16 l 3,3 8,4 3,1 4,1 -8,2 -5,-1 -2,1 -1,2 1,11 3,1 v 2 l -2,4 v 11 l 2,4 v 3 l -3,5 -6,8 -5,8 -5,11 -2,2"
       id="path59" />
    <path
       d="m 163,66 1,32 v 6 l -1,12 v 60 l -3,-3 -3,-8 -3,-5 -3,-5 -6,-8 -3,-5 v -3 l 2,-4 v -11 l -2,-4 1,-3 3,-1 v -9 l -1,-1 v -2 l -2,-1 -5,1 h -2 l -6,-2 4,-1 5,-2 6,-3 3,-3 V 77 l 1,-2 8,-8 2,-1"
       id="path60" />
    <path
       d="m 161,20 h 6 l 4,1 3,1 3,2 3,3 2,3 1,2 1,3 1,7 1,10 v 13 l -1,5 -4,7 -4,-5 -2,-2 h -1 l -3,-3 -3,-2 -3,-1 h -3 l -3,1 -3,2 -7,8 -2,2 -2,-4 -2,-3 -1,-5 V 51 l 1,-10 1,-6 1,-3 1,-2 2,-3 3,-3 3,-2 3,-1"
       id="path61" />
    <path
       d="m 162,19 -5,1 -6,3 -5,5 -1,2 -1,2 -1,4 -1,6 -1,17 v 3 l 1,8 5,8 v 15 l -2,2 -8,4 -3,1 -3,1 h -6 l -4,1 -4,1 -8,4 -3,2 -5,5 -2,3 -1,2 -1,3 -1,4 -1,6 v 9 l -1,4 -2,4 -1,4 -1,10 v 15 l -1,10 -1,2 -3,4 -2,4 -1,3 -1,6 -1,8 -2,26 -1,9 -1,5 -2,4 -5,10 -1,3 v 5 l 4,8 3,5 4,4 h 3 v -3 l -5,-9 v -4 l 6,-6 2,2 1,9 h 2 l 2,-2 1,-7 v -6 l -4,-7 v -8 l 1,-3 3,-7 4,-9 8,-15 1,-3 1,-3 1,-4 1,-4 1,-6 v -7 l 4,-10 2,-7 1,-4 1,-4 1,-5 1,2 1,1 4,11 v 4 l 2,4 v 11 l 2,13 v 6 l -1,14 -1,3 -4,7 -2,5 -1,3 -1,3 -1,4 -1,7 -1,14 1,27 1,16 1,8 2,5 1,6 1,7 1,7 v 22 l -1,18 -4,13 -1,5 -1,7 v 15 l 2,44 v 9 l -2,2 -3,1 -1,2 v 2 l 1,1 v 3 l 2,4 v 6 l 1,3 2,2 2,1 h 9 l 2,-2 1,-2 1,-5 v -8 l -1,-12 1,-1 v -12 l 1,-5 1,-4 1,-3 5,-9 2,-5 3,-9 1,-7 v -24 l 1,-14 1,-3 2,-3 1,-3 1,-4 1,-4 1,-7 v -12 l 1,-8 2,-8 4,-13 1,-6 v -29 l 2,-4 2,4 v 30 l 1,5 1,5 1,4 3,8 1,5 1,9 v 11 l 1,6 1,5 5,12 1,14 v 24 l 1,7 1,4 1,3 2,5 5,9 2,5 1,4 1,5 1,14 v 9 l -1,1 v 10 l 1,4 1,2 2,2 3,1 h 2 l 1,-1 h 3 l 2,-1 1,-1 1,-2 1,-2 v -6 l 2,-4 v -6 l -1,-3 h -2 l -2,-2 v -13 l 2,-43 v -11 l -1,-8 -1,-5 -5,-17 1,-7 v -3 -2 l -2,-10 v -3 l 1,-11 1,-7 1,-7 3,-12 1,-8 1,-17 v -38 l -1,-7 -1,-5 -1,-3 -1,-3 -4,-7 -2,-5 -1,-3 -1,-14 v -7 l 1,-13 1,-10 2,-4 v -4 l 4,-11 1,-1 1,-2 1,5 1,4 1,4 3,7 2,7 1,4 v 7 l 1,5 1,5 3,9 7,13 5,11 3,7 1,3 v 7 l -1,3 -2,2 -1,3 v 6 l 1,7 1,2 4,-1 v -8 l 2,-2 6,6 v 4 l -5,9 v 3 h 3 l 3,-3 2,-3 3,-5 1,-2 1,-2 1,-3 v -4 l -1,-3 -4,-7 -3,-7 -1,-5 -1,-8 -1,-9 -1,-18 -1,-7 -1,-7 -1,-3 -2,-4 -3,-4 -1,-2 -1,-8 v -15 l -1,-12 -1,-4 -3,-7 v -10 l -1,-5 -1,-5 -1,-3 -1,-2 -2,-3 -5,-5 -3,-2 -6,-3 -3,-1 -3,-1 -5,-1 h -5 l -3,-1 -3,-1 -8,-4 -2,-2 V 78 l 5,-8 V 43 l -1,-7 -1,-3 -1,-3 -2,-3 -4,-4 -6,-3 -5,-1"
       id="path62" />
  </g>
</svg>
